<svg xmlns="http://www.w3.org/2000/svg" viewBox="0 0 165.6 35"><defs><style>.cls-1{fill:#1fbe54;}.cls-2{fill:#50ffb0;}.cls-3{fill:#04e761;}.cls-4{fill:none;}</style></defs><title>Vatdoc Logo Black</title><g id="Layer_2" data-name="Layer 2"><g id="Layer_1-2" data-name="Layer 1"><path class="cls-1" d="M47,0,33.42,35H18a2.55,2.55,0,0,1-2.2-3.57l2.09-5.21L23.5,12.34,28.45,0Z"/><path class="cls-2" d="M31.54,21.34A68.79,68.79,0,0,0,32.88,35h-15V0H35A65.59,65.59,0,0,0,31.54,21.34Z"/><polygon class="cls-3" points="32.59 35 13.58 35 0 0 18.55 0 23.5 12.34 32.59 35"/><polyline class="cls-4" points="13.58 35 14.41 35 17.93 35 32.59 35 32.88 35 33.42 35"/><path d="M51.25,10.86h5.3l5.05,15.3,5-15.3h5.3L64.71,30.43H58.46Z"/><path d="M73.53,27.87a10.22,10.22,0,0,1-2.63-7.26,10.22,10.22,0,0,1,2.61-7.23,8.69,8.69,0,0,1,6.64-2.81A6.84,6.84,0,0,1,86.3,13.9v-3h5V30.43h-5V27.15a6.92,6.92,0,0,1-6.18,3.57A8.59,8.59,0,0,1,73.53,27.87Zm11.22-3a5.69,5.69,0,0,0,1.55-4.22,5.7,5.7,0,0,0-1.55-4.23,5,5,0,0,0-3.64-1.53,5,5,0,0,0-3.62,1.51A5.65,5.65,0,0,0,76,20.61a5.76,5.76,0,0,0,1.55,4.24,5,5,0,0,0,3.63,1.56A5,5,0,0,0,84.75,24.87Z"/><path d="M101.6,26.26H104v4.17h-3.14a6.93,6.93,0,0,1-4.63-1.37q-1.64-1.38-1.63-4.56V14.92H92.49V10.86h2.08V6h5v4.84h4.38v4.06H99.56V24.5a1.77,1.77,0,0,0,.45,1.36A2.43,2.43,0,0,0,101.6,26.26Z"/><path d="M106.57,27.87a10.22,10.22,0,0,1-2.63-7.26,10.22,10.22,0,0,1,2.61-7.23,8.71,8.71,0,0,1,6.65-2.81,6.84,6.84,0,0,1,6.14,3.33V4.28h5V30.43h-5V27.15a6.92,6.92,0,0,1-6.18,3.57A8.59,8.59,0,0,1,106.57,27.87Zm11.22-3a5.66,5.66,0,0,0,1.55-4.22,5.66,5.66,0,0,0-1.55-4.23,5,5,0,0,0-3.64-1.53,5,5,0,0,0-3.62,1.51A5.65,5.65,0,0,0,109,20.61a5.72,5.72,0,0,0,1.56,4.24,4.94,4.94,0,0,0,3.62,1.56A5,5,0,0,0,117.79,24.87Z"/><path d="M128.57,27.93a9.77,9.77,0,0,1-2.86-7.32,9.58,9.58,0,0,1,2.89-7.28,10.76,10.76,0,0,1,14.39,0,9.58,9.58,0,0,1,2.89,7.28A9.69,9.69,0,0,1,143,27.93a10.06,10.06,0,0,1-7.23,2.79A9.87,9.87,0,0,1,128.57,27.93Zm7.17-1.42A4.83,4.83,0,0,0,139.33,25a6,6,0,0,0,1.5-4.34,5.92,5.92,0,0,0-1.48-4.33,4.85,4.85,0,0,0-3.59-1.52,4.72,4.72,0,0,0-3.55,1.52,6,6,0,0,0-1.45,4.35A6,6,0,0,0,132.21,25,4.66,4.66,0,0,0,135.74,26.51Z"/><path d="M149.45,28a10,10,0,0,1-2.68-7.31,10,10,0,0,1,2.68-7.32,9.28,9.28,0,0,1,7-2.76,10,10,0,0,1,6,1.74,8.35,8.35,0,0,1,3.21,4.91h-5.37a3.71,3.71,0,0,0-3.82-2.44A4,4,0,0,0,153,16.35a6.87,6.87,0,0,0-1.22,4.3A6.86,6.86,0,0,0,153,24.94a4,4,0,0,0,3.37,1.57A3.74,3.74,0,0,0,160.23,24h5.37a8.72,8.72,0,0,1-3.27,4.87,9.56,9.56,0,0,1-5.92,1.81A9.28,9.28,0,0,1,149.45,28Z"/></g></g></svg>